<?xml version="1.0" standalone="no"?>
<!DOCTYPE svg PUBLIC "-//W3C//DTD SVG 20010904//EN"
 "http://www.w3.org/TR/2001/REC-SVG-20010904/DTD/svg10.dtd">
<svg version="1.0" xmlns="http://www.w3.org/2000/svg"
 width="222.000000pt" height="180.000000pt" viewBox="0 0 222.000000 180.000000"
 preserveAspectRatio="xMidYMid meet">

<g transform="translate(0.000000,180.000000) scale(0.100000,-0.100000)"
fill="#000000" stroke="none">
<path d="M917 1513 c-27 -26 13 -153 48 -153 20 0 19 9 -5 45 -11 17 -20 40
-20 53 0 20 5 22 50 22 l50 0 0 -60 c0 -47 3 -60 15 -60 12 0 15 15 15 74 0
68 -2 74 -22 80 -31 8 -123 8 -131 -1z"/>
<path d="M1157 1514 c-4 -4 -7 -40 -7 -81 0 -58 3 -73 15 -73 12 0 15 13 15
60 l0 60 50 0 c48 0 50 -1 50 -27 0 -16 -9 -39 -20 -53 -25 -32 -25 -40 0 -40
29 0 52 52 48 108 l-3 47 -70 3 c-39 1 -74 0 -78 -4z"/>
<path d="M768 1387 c-35 -58 -37 -63 -20 -78 27 -26 108 -70 115 -62 15 15 5
30 -38 53 -25 14 -45 29 -45 34 0 5 9 24 21 42 18 29 23 32 43 23 13 -6 31
-26 39 -45 9 -19 21 -34 27 -34 15 0 12 38 -6 65 -16 24 -73 65 -90 65 -5 0
-26 -28 -46 -63z"/>
<path d="M1367 1428 c-22 -14 -35 -28 -32 -36 2 -7 1 -10 -5 -7 -12 7 -33 -33
-26 -51 9 -23 23 -16 36 17 12 27 56 68 64 58 5 -8 46 -80 46 -83 0 -1 -22
-13 -50 -26 -52 -24 -55 -27 -42 -47 5 -9 25 -2 70 23 34 19 62 39 62 44 0 14
-70 130 -78 130 -4 0 -24 -10 -45 -22z"/>
<path d="M657 1198 c-52 -91 -52 -85 -7 -113 43 -27 101 -33 119 -12 16 20 4
27 -43 27 -60 0 -72 11 -57 49 21 49 34 54 75 31 19 -12 41 -18 47 -14 8 5 9
3 4 -6 -5 -8 -3 -11 5 -8 28 9 18 24 -39 56 -33 17 -64 32 -69 32 -6 0 -21
-19 -35 -42z"/>
<path d="M1465 1209 c-63 -40 -61 -37 -47 -51 8 -8 23 -4 57 17 26 15 48 25
50 23 1 -1 12 -20 24 -40 20 -37 20 -38 1 -48 -10 -5 -37 -10 -59 -10 -28 0
-41 -4 -41 -14 0 -16 21 -26 56 -26 29 0 104 40 104 55 -1 20 -67 120 -81 122
-8 2 -36 -11 -64 -28z"/>
<path d="M648 1014 c-21 -13 -38 -27 -38 -29 0 -5 21 -40 66 -112 l14 -22 63
36 c77 45 73 41 59 55 -9 9 -24 5 -62 -16 -28 -16 -53 -26 -54 -24 -8 9 -36
68 -36 76 0 15 52 33 79 27 31 -6 45 3 30 21 -18 22 -79 16 -121 -12z"/>
<path d="M1463 1033 c-28 -11 -12 -28 24 -27 20 1 47 -5 60 -13 l23 -15 -22
-37 c-12 -20 -23 -37 -24 -39 -3 -5 -66 28 -85 45 -14 12 -17 12 -23 -3 -4 -9
-5 -18 -4 -19 25 -22 112 -66 122 -62 14 5 76 107 76 123 0 5 -18 19 -40 32
-37 21 -79 27 -107 15z"/>
<path d="M795 824 c-33 -20 -62 -38 -64 -40 -5 -5 72 -134 81 -134 4 0 22 9
42 21 36 21 66 58 66 83 0 29 -18 25 -38 -8 -11 -19 -29 -39 -40 -45 -17 -9
-23 -6 -41 25 -12 19 -21 39 -21 43 0 5 20 19 45 32 48 25 49 27 37 46 -6 9
-24 3 -67 -23z"/>
<path d="M1356 845 c-3 -9 4 -21 19 -30 14 -8 36 -22 50 -31 l26 -15 -22 -37
c-12 -20 -24 -39 -25 -41 -8 -10 -52 31 -64 58 -13 33 -27 40 -36 17 -9 -24
28 -76 70 -98 45 -23 48 -21 92 60 24 45 26 55 14 63 -106 64 -118 69 -124 54z"/>
<path d="M927 707 c-12 -22 -17 -49 -15 -78 l3 -44 75 0 75 0 3 78 c2 64 0 77
-13 77 -12 0 -15 -13 -15 -60 l0 -60 -50 0 c-58 0 -63 11 -30 73 24 45 24 47
2 47 -10 0 -25 -15 -35 -33z"/>
<path d="M1152 663 l3 -78 75 0 75 0 3 47 c4 57 -19 108 -49 108 l-21 0 21
-34 c12 -18 21 -45 21 -60 0 -25 -3 -26 -50 -26 l-51 0 2 33 c4 65 -1 87 -16
87 -13 0 -15 -13 -13 -77z"/>
<path d="M679 481 c18 -18 21 -33 21 -122 l0 -101 34 -34 c29 -29 41 -34 80
-34 102 0 124 33 127 190 1 72 -2 115 -9 118 -7 2 -12 -41 -14 -123 -3 -119
-4 -128 -27 -146 -39 -32 -109 -22 -127 18 -4 10 -10 70 -13 133 l-6 115 -43
3 -43 3 20 -20z"/>
<path d="M970 493 c35 -12 40 -35 40 -171 0 -91 3 -131 11 -127 6 4 9 46 8
108 -1 56 0 102 3 102 2 0 43 -46 91 -101 74 -86 93 -102 124 -107 42 -7 70 4
33 13 l-25 6 -3 142 c-3 166 -22 198 -22 37 0 -58 -3 -105 -8 -105 -4 0 -14
11 -22 24 -8 14 -48 61 -88 105 -70 77 -75 81 -115 80 -23 0 -35 -3 -27 -6z"/>
<path d="M1282 375 c3 -120 4 -126 30 -151 34 -35 110 -44 157 -19 46 23 61
67 61 179 0 80 3 97 18 105 13 8 8 10 -25 11 -51 0 -51 0 -55 -146 -3 -118
-17 -144 -75 -144 -76 0 -93 34 -93 186 0 68 -4 104 -11 104 -7 0 -10 -40 -7
-125z"/>
<path d="M552 120 c0 -14 2 -19 5 -12 2 6 2 18 0 25 -3 6 -5 1 -5 -13z"/>
<path d="M612 120 c7 -11 17 -20 22 -20 5 0 1 9 -9 20 -10 11 -20 20 -22 20
-2 0 2 -9 9 -20z"/>
<path d="M670 126 c0 -8 4 -17 9 -20 5 -4 7 3 4 14 -6 23 -13 26 -13 6z"/>
<path d="M712 120 c0 -14 2 -19 5 -12 2 6 2 18 0 25 -3 6 -5 1 -5 -13z"/>
<path d="M762 124 c2 -27 24 -27 25 0 1 12 -1 15 -4 7 -5 -11 -7 -11 -14 0 -6
10 -8 8 -7 -7z"/>
<path d="M800 132 c0 -5 7 -15 15 -22 8 -7 15 -9 15 -6 0 4 -7 14 -15 22 -8 9
-15 11 -15 6z"/>
<path d="M842 115 c0 -16 2 -22 5 -12 2 9 2 23 0 30 -3 6 -5 -1 -5 -18z"/>
<path d="M872 115 c0 -16 2 -22 5 -12 2 9 2 23 0 30 -3 6 -5 -1 -5 -18z"/>
<path d="M910 135 c0 -5 5 -17 10 -25 5 -8 10 -10 10 -5 0 6 -5 17 -10 25 -5
8 -10 11 -10 5z"/>
<path d="M940 136 c0 -11 30 -39 36 -34 2 3 -5 13 -16 23 -11 10 -20 15 -20
11z"/>
<path d="M1015 120 c10 -11 20 -20 23 -20 3 0 -3 9 -13 20 -10 11 -20 20 -23
20 -3 0 3 -9 13 -20z"/>
<path d="M1102 120 c0 -14 2 -19 5 -12 2 6 2 18 0 25 -3 6 -5 1 -5 -13z"/>
<path d="M1132 120 c0 -14 2 -19 5 -12 2 6 2 18 0 25 -3 6 -5 1 -5 -13z"/>
<path d="M1152 115 c0 -16 2 -22 5 -12 2 9 2 23 0 30 -3 6 -5 -1 -5 -18z"/>
<path d="M1260 126 c0 -8 4 -17 9 -20 5 -4 7 3 4 14 -6 23 -13 26 -13 6z"/>
<path d="M1302 120 c0 -14 2 -19 5 -12 2 6 2 18 0 25 -3 6 -5 1 -5 -13z"/>
<path d="M1332 120 c0 -14 2 -19 5 -12 2 6 2 18 0 25 -3 6 -5 1 -5 -13z"/>
<path d="M1382 115 c0 -16 2 -22 5 -12 2 9 2 23 0 30 -3 6 -5 -1 -5 -18z"/>
<path d="M1492 115 c0 -16 2 -22 5 -12 2 9 2 23 0 30 -3 6 -5 -1 -5 -18z"/>
<path d="M1575 130 c3 -5 8 -10 11 -10 2 0 4 5 4 10 0 6 -5 10 -11 10 -5 0 -7
-4 -4 -10z"/>
<path d="M1650 134 c0 -6 7 -19 16 -30 14 -18 14 -18 3 6 -14 31 -19 36 -19
24z"/>
<path d="M1066 115 c4 -8 10 -15 15 -15 4 0 6 7 3 15 -4 8 -10 15 -15 15 -4 0
-6 -7 -3 -15z"/>
<path d="M893 36 c7 -14 13 -23 15 -21 7 6 -9 45 -18 45 -4 0 -3 -11 3 -24z"/>
<path d="M972 39 c-7 -12 -11 -24 -8 -27 3 -3 6 0 6 7 0 7 4 10 9 7 5 -3 11 3
14 14 7 26 -5 26 -21 -1z"/>
<path d="M1042 38 c7 -15 15 -23 17 -17 2 6 -4 18 -13 27 -15 15 -15 15 -4
-10z"/>
<path d="M1090 46 c0 -8 4 -17 9 -20 5 -4 7 3 4 14 -6 23 -13 26 -13 6z"/>
<path d="M1121 34 c0 -16 3 -23 6 -16 4 10 8 10 21 0 12 -9 11 -5 -3 12 -11
14 -21 27 -22 29 -2 2 -3 -9 -2 -25z"/>
<path d="M1180 53 c0 -4 5 -15 10 -23 8 -13 10 -13 10 2 0 9 -4 20 -10 23 -5
3 -10 3 -10 -2z"/>
<path d="M1221 52 c-1 -7 5 -20 13 -27 11 -12 14 -10 14 12 0 15 -3 20 -8 13
-6 -9 -9 -9 -13 1 -4 11 -6 11 -6 1z"/>
<path d="M1272 35 c0 -17 2 -22 5 -12 2 9 2 23 0 30 -3 6 -5 -1 -5 -18z"/>
<path d="M1310 55 c0 -5 5 -17 10 -25 5 -8 10 -10 10 -5 0 6 -5 17 -10 25 -5
8 -10 11 -10 5z"/>
<path d="M931 34 c0 -11 3 -14 6 -6 3 7 2 16 -1 19 -3 4 -6 -2 -5 -13z"/>
</g>
</svg>
